<svg width="24" height="24" viewBox="0 0 24 24" fill="none" xmlns="http://www.w3.org/2000/svg">
<path fill-rule="evenodd" clip-rule="evenodd" d="M11.9958 0C9.14698 0.00147807 6.39161 1.01046 4.22235 2.84652C2.05309 4.68259 0.611387 7.22601 0.155028 10.022C-0.301331 12.818 0.25741 15.6842 1.73135 18.1082C3.2053 20.5321 5.49832 22.3558 8.20041 23.253C8.79654 23.3636 9.02108 22.9941 9.02108 22.68C9.02108 22.3658 9.00915 21.455 9.00518 20.4592C5.66688 21.1804 4.96147 19.0505 4.96147 19.0505C4.41701 17.6674 3.63012 17.3039 3.63012 17.3039C2.5412 16.565 3.7116 16.5788 3.7116 16.5788C4.91776 16.6637 5.55164 17.8097 5.55164 17.8097C6.62069 19.6333 8.35938 19.1058 9.04293 18.7976C9.15024 18.0251 9.46221 17.4995 9.80598 17.2012C7.13931 16.9008 4.33752 15.8774 4.33752 11.3054C4.32099 10.1197 4.76351 8.97305 5.57349 8.10268C5.45029 7.80236 5.03896 6.58923 5.69073 4.94143C5.69073 4.94143 6.69819 4.62136 8.99128 6.16444C10.9582 5.62962 13.0333 5.62962 15.0002 6.16444C17.2913 4.62136 18.2968 4.94143 18.2968 4.94143C18.9505 6.58528 18.5392 7.79841 18.416 8.10268C19.2286 8.97319 19.672 10.1218 19.654 11.3094C19.654 15.8912 16.8462 16.9008 14.1756 17.1952C14.6048 17.5667 14.9883 18.2918 14.9883 19.4061C14.9883 21.0026 14.9744 22.2868 14.9744 22.68C14.9744 22.9981 15.191 23.3695 15.799 23.253C18.5014 22.3557 20.7947 20.5317 22.2686 18.1073C23.7425 15.683 24.301 12.8163 23.8441 10.0201C23.3872 7.2238 21.9448 4.68035 19.7748 2.84461C17.6048 1.00886 14.8488 0.000541194 11.9997 0H11.9958Z" fill="#646464"/>
<path d="M4.53992 17.132C4.51409 17.1913 4.41871 17.2091 4.34121 17.1676C4.26372 17.1261 4.20609 17.049 4.23391 16.9878C4.26173 16.9265 4.35513 16.9107 4.43262 16.9522C4.51012 16.9937 4.56973 17.0727 4.53992 17.132Z" fill="#646464"/>
<path d="M5.02677 17.6714C4.98562 17.692 4.93854 17.6978 4.89359 17.6877C4.84865 17.6776 4.80863 17.6523 4.78038 17.6161C4.70288 17.5331 4.68698 17.4185 4.74659 17.3671C4.8062 17.3157 4.91351 17.3395 4.99101 17.4224C5.0685 17.5054 5.08639 17.62 5.02677 17.6714Z" fill="#646464"/>
<path d="M5.49973 18.357C5.42621 18.4084 5.30101 18.357 5.23146 18.2542C5.21223 18.2358 5.19694 18.2137 5.18649 18.1893C5.17605 18.1648 5.17065 18.1385 5.17065 18.112C5.17065 18.0854 5.17605 18.0591 5.18649 18.0347C5.19694 18.0103 5.21223 17.9882 5.23146 17.9697C5.30499 17.9203 5.43018 17.9697 5.49973 18.0705C5.56928 18.1713 5.57126 18.3056 5.49973 18.357Z" fill="#646464"/>
<path d="M6.14154 19.0208C6.07596 19.0939 5.94283 19.0742 5.83354 18.9754C5.72425 18.8766 5.69841 18.7423 5.76399 18.6711C5.82956 18.6 5.9627 18.6198 6.07596 18.7166C6.18922 18.8134 6.21109 18.9497 6.14154 19.0208Z" fill="#646464"/>
<path d="M7.04166 19.4081C7.01185 19.501 6.87673 19.5424 6.74161 19.5029C6.60648 19.4634 6.51707 19.3528 6.5429 19.2579C6.56873 19.1631 6.70584 19.1196 6.84295 19.1631C6.98006 19.2066 7.06749 19.3113 7.04166 19.4081Z" fill="#646464"/>
<path d="M8.02332 19.4753C8.02332 19.5721 7.91205 19.6551 7.76897 19.657C7.6259 19.659 7.50867 19.58 7.50867 19.4832C7.50867 19.3864 7.61994 19.3034 7.76301 19.3014C7.90608 19.2994 8.02332 19.3765 8.02332 19.4753Z" fill="#646464"/>
<path d="M8.93738 19.3231C8.95526 19.4199 8.85591 19.5207 8.71284 19.5444C8.56977 19.5681 8.44458 19.5108 8.4267 19.416C8.40881 19.3212 8.51214 19.2184 8.65124 19.1927C8.79033 19.1671 8.9195 19.2263 8.93738 19.3231Z" fill="#646464"/>
</svg>
